<?xml version="1.0" encoding="utf-8"?>
<!-- Generator: Adobe Illustrator 22.1.0, SVG Export Plug-In . SVG Version: 6.00 Build 0)  -->
<svg version="1.1" id="Layer_1" xmlns="http://www.w3.org/2000/svg" xmlns:xlink="http://www.w3.org/1999/xlink" x="0px" y="0px"
	 viewBox="0 0 2000 2000" style="enable-background:new 0 0 2000 2000;" xml:space="preserve">
<style type="text/css">
	.st0{fill:#0F0F0F;}
	.st1{fill:#FF0A0A;}
</style>
<g>
	<rect x="4" class="st0" width="2000" height="2000"/>
</g>
<g>
	<path class="st1" d="M314.6,1235.8v-73.3c62.9,27.2,117.2,40.8,163.1,40.8c32.9,0,60.2-6.7,81.7-20c21.5-13.3,32.3-30.1,32.3-50.4
		c0-26.1-25.7-47.4-77-63.8l-86.9-28.4c-67.8-22-101.7-60.7-101.7-116.1c0-40.6,15.3-72.1,45.9-94.3c30.6-22.2,73.9-33.4,129.9-33.4
		c42,0,90.7,6.5,146.2,19.4V882c-53.5-16.2-102.4-24.3-146.6-24.3c-29.7,0-53.3,5.4-71,16.1c-17.7,10.7-26.6,25.1-26.6,43.2
		c0,22.2,20.2,40.4,60.5,54.4l102.5,35.8c37.3,13.2,64.2,28.9,80.5,47.2c16.3,18.3,24.5,41.9,24.5,71c0,42.3-17.4,76-52.3,101.1
		c-34.9,25.1-81.7,37.7-140.4,37.7C427.9,1264.2,373,1254.7,314.6,1235.8z"/>
	<path class="st1" d="M928.6,1253.9v-376H806.7V817h121.9v-47.4c0-62.6,14.5-107.6,43.7-135.1c29.1-27.5,76.9-41.2,143.3-41.2
		c43.9,0,85.5,5.9,124.8,17.7v64.2c-40.1-14-79.6-21-118.6-21c-41.5,0-70.5,7.9-87.1,23.7c-16.6,15.8-24.9,43.4-24.9,83v56h213.7
		v60.9h-213.7v376H928.6z"/>
	<path class="st1" d="M1253.9,1314.8v-60.9h508.2v60.9H1253.9z"/>
</g>
</svg>
